<?xml version="1.0" standalone="no"?>
<!DOCTYPE svg PUBLIC "-//W3C//DTD SVG 20010904//EN"
 "http://www.w3.org/TR/2001/REC-SVG-20010904/DTD/svg10.dtd">
<svg version="1.0" xmlns="http://www.w3.org/2000/svg"
 width="368.000000pt" height="368.000000pt" viewBox="0 0 368.000000 368.000000"
 preserveAspectRatio="xMidYMid meet">
<metadata>
Created by potrace 1.11, written by Peter Selinger 2001-2013
</metadata>
<g transform="translate(0.000000,368.000000) scale(0.100000,-0.100000)"
fill="#000000" stroke="none">
<path d="M1097 2883 c-8 -8 -9 -1163 -1 -1163 3 0 22 13 42 30 20 16 60 39 87
52 48 22 63 23 395 29 246 4 356 9 382 19 70 25 143 93 180 167 29 60 33 76
32 148 0 59 -6 93 -22 127 -28 63 -95 134 -157 166 -49 27 -52 27 -288 30
l-237 3 2 -178 3 -178 105 0 105 0 3 73 3 72 85 0 c100 0 146 -16 168 -59 27
-51 21 -98 -18 -137 l-34 -34 -311 0 -311 0 0 311 0 310 348 -3 c396 -4 414
-7 544 -94 177 -120 255 -332 200 -545 -32 -122 -111 -224 -227 -294 -110 -65
-126 -68 -485 -75 -354 -7 -366 -9 -455 -70 -51 -35 -94 -93 -121 -165 -17
-44 -19 -78 -19 -305 l0 -255 318 -3 317 -2 1 287 c0 192 3 283 10 273 14 -22
223 -360 288 -468 l56 -92 362 0 c200 0 363 2 363 5 0 3 -172 282 -406 659
l-43 69 77 82 c82 86 138 179 166 275 58 194 34 401 -66 575 -49 83 -170 206
-251 254 -79 46 -206 88 -307 100 -92 12 -872 15 -883 4z m1200 -1597 c68
-109 123 -200 123 -204 0 -4 -48 -7 -106 -6 l-106 0 -114 184 -113 185 81 17
c44 10 83 20 86 23 14 13 33 -13 149 -199z m-787 -24 c0 -98 -2 -181 -4 -183
-2 -2 -47 -3 -100 -1 l-96 3 0 130 c0 146 9 177 63 209 21 13 50 20 85 20 l52
0 0 -178z"/>
</g>
</svg>
